ffmpeg started on 2016-12-07 at 15:25:48
Report written to "Output/x264/results/ffmpeg/sintelslow12000k.log"
Command line:
Tools/ffmpeg/ffmpeg -benchmark -y -i Input/y4m/sintel.y4m -c:v libx264 -preset slow -b:v 12000k -an Output/x264/encoded/sintelslow12000k.mkv
ffmpeg version N-82227-gdb23fde Copyright (c) 2000-2016 the FFmpeg developers
  built with gcc 5.4.0 (Ubuntu 5.4.0-6ubuntu1~16.04.2) 20160609
  configuration: --prefix=/home/jaroslav/ffmpeg_build --pkg-config-flags=--static --extra-cflags=-I/home/jaroslav/ffmpeg_build/include --extra-ldflags=-L/home/jaroslav/ffmpeg_build/lib --bindir=/home/jaroslav/bin --enable-gpl --enable-libass --enable-libfdk-aac --enable-libfreetype --enable-libmp3lame --enable-libopus --enable-libtheora --enable-libvorbis --enable-libvpx --enable-libx264 --enable-libx265 --enable-nvenc --enable-libmfx --enable-libxvid --enable-libgsm --enable-libopencore-amrnb --enable-version3 --enable-nonfree
  libavutil      55. 35.100 / 55. 35.100
  libavcodec     57. 66.101 / 57. 66.101
  libavformat    57. 57.100 / 57. 57.100
  libavdevice    57.  2.100 / 57.  2.100
  libavfilter     6. 66.100 /  6. 66.100
  libswscale      4.  3.100 /  4.  3.100
  libswresample   2.  4.100 /  2.  4.100
  libpostproc    54.  2.100 / 54.  2.100
Input #0, yuv4mpegpipe, from 'Input/y4m/sintel.y4m':
  Duration: 00:00:20.83, start: 0.000000, bitrate: 2057307 kb/s
    Stream #0:0: Video: rawvideo (I420 / 0x30323449), yuv420p(progressive), 4096x1744, SAR 1:1 DAR 256:109, 24 fps, 24 tbr, 24 tbn, 24 tbc
[libx264 @ 0x40011c0] using SAR=1/1
[libx264 @ 0x40011c0] using cpu capabilities: MMX2 SSE2Fast SSSE3 SSE4.2 AVX FMA3 AVX2 LZCNT BMI2
[libx264 @ 0x40011c0] profile High, level 5.1
[libx264 @ 0x40011c0] 264 - core 148 - H.264/MPEG-4 AVC codec - Copyleft 2003-2016 - http://www.videolan.org/x264.html - options: cabac=1 ref=5 deblock=1:0:0 analyse=0x3:0x113 me=hex subme=8 psy=1 psy_rd=1.00:0.00 mixed_ref=1 me_range=16 chroma_me=1 trellis=2 8x8dct=1 cqm=0 deadzone=21,11 fast_pskip=1 chroma_qp_offset=-2 threads=6 lookahead_threads=1 sliced_threads=0 nr=0 decimate=1 interlaced=0 bluray_compat=0 constrained_intra=0 bframes=3 b_pyramid=2 b_adapt=1 b_bias=0 direct=3 weightb=1 open_gop=0 weightp=2 keyint=250 keyint_min=24 scenecut=40 intra_refresh=0 rc_lookahead=50 rc=abr mbtree=1 bitrate=12000 ratetol=1.0 qcomp=0.60 qpmin=0 qpmax=69 qpstep=4 ip_ratio=1.40 aq=1:1.00
Output #0, matroska, to 'Output/x264/encoded/sintelslow12000k.mkv':
  Metadata:
    encoder         : Lavf57.57.100
    Stream #0:0: Video: h264 (libx264) (H264 / 0x34363248), yuv420p, 4096x1744 [SAR 1:1 DAR 256:109], q=-1--1, 12000 kb/s, 24 fps, 1k tbn, 24 tbc
    Metadata:
      encoder         : Lavc57.66.101 libx264
    Side data:
      cpb: bitrate max/min/avg: 0/0/12000000 buffer size: 0 vbv_delay: -1
Stream mapping:
  Stream #0:0 -> #0:0 (rawvideo (native) -> h264 (libx264))
Press [q] to stop, [?] for help
frame=    9 fps=0.0 q=0.0 size=       0kB time=00:00:00.00 bitrate=N/A speed=   0x    frame=   18 fps= 17 q=0.0 size=       0kB time=00:00:00.00 bitrate=N/A speed=   0x    frame=   27 fps= 17 q=0.0 size=       0kB time=00:00:00.00 bitrate=N/A speed=   0x    frame=   36 fps= 17 q=0.0 size=       0kB time=00:00:00.00 bitrate=N/A speed=   0x    frame=   45 fps= 17 q=0.0 size=       0kB time=00:00:00.00 bitrate=N/A speed=   0x    frame=   54 fps= 17 q=0.0 size=       0kB time=00:00:00.00 bitrate=N/A speed=   0x    frame=   57 fps=9.4 q=0.0 size=       0kB time=00:00:00.00 bitrate=N/A speed=   0x    frame=   58 fps=6.2 q=0.0 size=       0kB time=00:00:00.00 bitrate=N/A speed=   0x    frame=   59 fps=4.7 q=0.0 size=       0kB time=00:00:00.00 bitrate=N/A speed=   0x    frame=   64 fps=4.6 q=32.0 size=       1kB time=00:00:00.04 bitrate= 136.6kbits/s speed=0.00307x    frame=   67 fps=4.5 q=40.0 size=       1kB time=00:00:00.16 bitrate=  35.0kbits/s speed=0.0113x    frame=   69 fps=4.4 q=41.0 size=       1kB time=00:00:00.25 bitrate=  23.4kbits/s speed=0.0162x    frame=   71 fps=4.4 q=41.0 size=       1kB time=00:00:00.33 bitrate=  17.6kbits/s speed=0.0208x    frame=   75 fps=4.5 q=41.0 size=       1kB time=00:00:00.50 bitrate=  11.7kbits/s speed=0.0301x    frame=   78 fps=4.5 q=40.0 size=       1kB time=00:00:00.62 bitrate=   9.4kbits/s speed=0.0361x    frame=   82 fps=4.6 q=40.0 size=       1kB time=00:00:00.79 bitrate=   7.4kbits/s speed=0.0443x    frame=   85 fps=4.5 q=40.0 size=       1kB time=00:00:00.91 bitrate=   6.4kbits/s speed=0.049x    frame=   91 fps=4.7 q=39.0 size=       1kB time=00:00:01.16 bitrate=   5.0kbits/s speed=0.0598x    frame=   94 fps=4.6 q=38.0 size=       1kB time=00:00:01.29 bitrate=   4.5kbits/s speed=0.0637x    frame=   97 fps=4.6 q=38.0 size=       1kB time=00:00:01.41 bitrate=   4.1kbits/s speed=0.0674x    frame=  100 fps=4.6 q=38.0 size=       1kB time=00:00:01.54 bitrate=   3.8kbits/s speed=0.0714x    frame=  103 fps=4.7 q=37.0 size=       1kB time=00:00:01.66 bitrate=   3.5kbits/s speed=0.0754x    frame=  107 fps=4.7 q=37.0 size=       1kB time=00:00:01.83 bitrate=   3.2kbits/s speed=0.08x    frame=  110 fps=4.7 q=37.0 size=       1kB time=00:00:01.95 bitrate=   3.0kbits/s speed=0.0833x    frame=  113 fps=4.7 q=37.0 size=       1kB time=00:00:02.08 bitrate=   2.8kbits/s speed=0.0865x    frame=  115 fps=4.7 q=37.0 size=       1kB time=00:00:02.16 bitrate=   2.7kbits/s speed=0.088x    frame=  117 fps=4.6 q=37.0 size=       1kB time=00:00:02.25 bitrate=   2.6kbits/s speed=0.0892x    frame=  120 fps=4.6 q=37.0 size=       1kB time=00:00:02.37 bitrate=   2.5kbits/s speed=0.092x    frame=  122 fps=4.6 q=36.0 size=       1kB time=00:00:02.45 bitrate=   2.4kbits/s speed=0.0929x    frame=  124 fps=4.6 q=36.0 size=       1kB time=00:00:02.54 bitrate=   2.3kbits/s speed=0.0939x    frame=  127 fps=4.5 q=36.0 size=    5131kB time=00:00:02.66 bitrate=15754.8kbits/s speed=0.0954x    frame=  131 fps=4.6 q=36.0 size=    5131kB time=00:00:02.83 bitrate=14832.0kbits/s speed=0.0991x    frame=  134 fps=4.5 q=36.0 size=    5131kB time=00:00:02.95 bitrate=14205.4kbits/s speed= 0.1x    frame=  136 fps=4.5 q=36.0 size=    5131kB time=00:00:03.04 bitrate=13813.3kbits/s speed=0.101x    frame=  140 fps=4.6 q=35.0 size=    5131kB time=00:00:03.20 bitrate=13098.7kbits/s speed=0.105x    frame=  142 fps=4.5 q=35.0 size=    5131kB time=00:00:03.29 bitrate=12764.6kbits/s speed=0.105x    frame=  145 fps=4.5 q=35.0 size=    5131kB time=00:00:03.41 bitrate=12297.8kbits/s speed=0.106x    frame=  148 fps=4.5 q=35.0 size=    5131kB time=00:00:03.54 bitrate=11863.9kbits/s speed=0.108x    frame=  151 fps=4.5 q=35.0 size=    5131kB time=00:00:03.66 bitrate=11459.6kbits/s speed=0.11x    frame=  154 fps=4.5 q=35.0 size=    5131kB time=00:00:03.79 bitrate=11081.9kbits/s speed=0.111x    frame=  159 fps=4.6 q=35.0 size=    6361kB time=00:00:04.00 bitrate=13025.0kbits/s speed=0.115x    frame=  162 fps=4.6 q=35.0 size=    6361kB time=00:00:04.12 bitrate=12630.4kbits/s speed=0.117x    frame=  163 fps=4.5 q=35.0 size=    6361kB time=00:00:04.16 bitrate=12503.1kbits/s speed=0.116x    frame=  169 fps=4.6 q=34.0 size=    6361kB time=00:00:04.41 bitrate=11795.6kbits/s speed=0.121x    frame=  171 fps=4.6 q=32.0 size=    6361kB time=00:00:04.50 bitrate=11578.1kbits/s speed=0.121x    frame=  174 fps=4.6 q=34.0 size=    6361kB time=00:00:04.62 bitrate=11265.3kbits/s speed=0.122x    frame=  178 fps=4.6 q=34.0 size=    6361kB time=00:00:04.79 bitrate=10872.8kbits/s speed=0.125x    frame=  181 fps=4.6 q=34.0 size=    6361kB time=00:00:04.91 bitrate=10596.4kbits/s speed=0.126x    frame=  185 fps=4.6 q=34.0 size=    6361kB time=00:00:05.08 bitrate=10250.4kbits/s speed=0.128x    frame=  187 fps=4.6 q=34.0 size=    6361kB time=00:00:05.16 bitrate=10083.8kbits/s speed=0.128x    frame=  190 fps=4.6 q=34.0 size=    6361kB time=00:00:05.29 bitrate=9845.7kbits/s speed=0.129x    frame=  192 fps=4.6 q=34.0 size=    6361kB time=00:00:05.37 bitrate=9693.7kbits/s speed=0.129x    frame=  195 fps=4.6 q=34.0 size=    6361kB time=00:00:05.50 bitrate=9473.4kbits/s speed=0.13x    frame=  198 fps=4.6 q=34.0 size=    6361kB time=00:00:05.62 bitrate=9262.9kbits/s speed=0.131x    frame=  202 fps=4.6 q=34.0 size=    6361kB time=00:00:05.79 bitrate=8995.9kbits/s speed=0.132x    frame=  205 fps=4.6 q=34.0 size=    6361kB time=00:00:05.91 bitrate=8805.9kbits/s speed=0.133x    frame=  207 fps=4.6 q=33.0 size=    6361kB time=00:00:06.00 bitrate=8684.1kbits/s speed=0.134x    frame=  210 fps=4.6 q=33.0 size=    6361kB time=00:00:06.12 bitrate=8506.9kbits/s speed=0.135x    frame=  212 fps=4.6 q=31.0 size=    6361kB time=00:00:06.20 bitrate=8393.2kbits/s speed=0.135x    frame=  219 fps=4.7 q=33.0 size=    9392kB time=00:00:06.50 bitrate=11835.3kbits/s speed=0.14x    frame=  222 fps=4.7 q=33.0 size=    9392kB time=00:00:06.62 bitrate=11612.1kbits/s speed=0.14x    frame=  224 fps=4.7 q=33.0 size=    9392kB time=00:00:06.70 bitrate=11468.4kbits/s speed=0.14x    frame=  228 fps=4.7 q=33.0 size=    9392kB time=00:00:06.87 bitrate=11189.9kbits/s speed=0.141x    frame=  231 fps=4.7 q=33.0 size=    9392kB time=00:00:07.00 bitrate=10990.1kbits/s speed=0.142x    frame=  233 fps=4.7 q=33.0 size=    9392kB time=00:00:07.08 bitrate=10861.3kbits/s speed=0.142x    frame=  237 fps=4.7 q=33.0 size=    9392kB time=00:00:07.25 bitrate=10611.2kbits/s speed=0.144x    frame=  239 fps=4.7 q=30.0 size=    9392kB time=00:00:07.33 bitrate=10491.1kbits/s speed=0.143x    frame=  242 fps=4.7 q=33.0 size=    9392kB time=00:00:07.45 bitrate=10315.3kbits/s speed=0.144x    frame=  250 fps=4.7 q=33.0 size=   10739kB time=00:00:07.79 bitrate=11288.4kbits/s speed=0.147x    frame=  256 fps=4.7 q=32.0 size=   10739kB time=00:00:08.04 bitrate=10937.5kbits/s speed=0.149x    frame=  259 fps=4.7 q=32.0 size=   10739kB time=00:00:08.16 bitrate=10770.1kbits/s speed=0.149x    frame=  261 fps=4.7 q=32.0 size=   10739kB time=00:00:08.25 bitrate=10661.8kbits/s speed=0.149x    frame=  263 fps=4.7 q=32.0 size=   10739kB time=00:00:08.33 bitrate=10555.6kbits/s speed=0.149x    frame=  268 fps=4.7 q=32.0 size=   10739kB time=00:00:08.54 bitrate=10297.4kbits/s speed=0.151x    frame=  269 fps=4.7 q=32.0 size=   10739kB time=00:00:08.58 bitrate=10248.2kbits/s speed=0.15x    frame=  274 fps=4.7 q=32.0 size=   10739kB time=00:00:08.79 bitrate=10004.6kbits/s speed=0.152x    frame=  276 fps=4.7 q=32.0 size=   10739kB time=00:00:08.87 bitrate=9911.1kbits/s speed=0.152x    frame=  279 fps=4.7 q=32.0 size=   10739kB time=00:00:09.00 bitrate=9773.4kbits/s speed=0.153x    frame=  285 fps=4.7 q=32.0 size=   10739kB time=00:00:09.25 bitrate=9509.3kbits/s speed=0.154x    frame=  291 fps=4.8 q=32.0 size=   10739kB time=00:00:09.50 bitrate=9259.1kbits/s speed=0.156x    frame=  294 fps=4.8 q=32.0 size=   10739kB time=00:00:09.62 bitrate=9138.8kbits/s speed=0.156x    frame=  300 fps=4.8 q=32.0 size=   10739kB time=00:00:09.87 bitrate=8907.5kbits/s speed=0.158x    frame=  303 fps=4.8 q=32.0 size=   10739kB time=00:00:10.00 bitrate=8796.2kbits/s speed=0.158x    frame=  307 fps=4.8 q=31.0 size=   10739kB time=00:00:10.16 bitrate=8651.7kbits/s speed=0.159x    frame=  310 fps=4.8 q=31.0 size=   10739kB time=00:00:10.29 bitrate=8546.6kbits/s speed=0.16x    frame=  313 fps=4.8 q=31.0 size=   10739kB time=00:00:10.41 bitrate=8444.1kbits/s speed=0.16x    frame=  317 fps=4.8 q=31.0 size=   10739kB time=00:00:10.58 bitrate=8311.6kbits/s speed=0.161x    frame=  321 fps=4.8 q=29.0 size=   10739kB time=00:00:10.75 bitrate=8182.5kbits/s speed=0.162x    frame=  322 fps=4.8 q=31.0 size=   10739kB time=00:00:10.79 bitrate=8150.7kbits/s speed=0.161x    frame=  327 fps=4.8 q=31.0 size=   14704kB time=00:00:11.00 bitrate=10949.2kbits/s speed=0.163x    frame=  333 fps=4.9 q=31.0 size=   14704kB time=00:00:11.25 bitrate=10705.9kbits/s speed=0.165x    frame=  338 fps=4.9 q=31.0 size=   14704kB time=00:00:11.45 bitrate=10511.6kbits/s speed=0.167x    frame=  340 fps=4.9 q=31.0 size=   14704kB time=00:00:11.54 bitrate=10435.1kbits/s speed=0.166x    frame=  344 fps=4.9 q=31.0 size=   14704kB time=00:00:11.70 bitrate=10287.1kbits/s speed=0.167x    frame=  348 fps=4.9 q=31.0 size=   14704kB time=00:00:11.87 bitrate=10142.5kbits/s speed=0.169x    frame=  352 fps=4.9 q=31.0 size=   14704kB time=00:00:12.04 bitrate=10001.8kbits/s speed=0.169x    frame=  360 fps=5.0 q=30.0 size=   14704kB time=00:00:12.37 bitrate=9732.7kbits/s speed=0.171x    frame=  368 fps=5.0 q=30.0 size=   14704kB time=00:00:12.70 bitrate=9477.7kbits/s speed=0.174x    frame=  375 fps=5.1 q=30.0 size=   14704kB time=00:00:13.00 bitrate=9264.8kbits/s speed=0.177x    frame=  376 fps=5.1 q=30.0 size=   14704kB time=00:00:13.04 bitrate=9235.0kbits/s speed=0.176x    frame=  384 fps=5.1 q=29.0 size=   14704kB time=00:00:13.37 bitrate=9005.1kbits/s speed=0.178x    frame=  392 fps=5.1 q=29.0 size=   14704kB time=00:00:13.70 bitrate=8786.3kbits/s speed=0.18x    frame=  398 fps=5.2 q=29.0 size=   14704kB time=00:00:13.95 bitrate=8629.0kbits/s speed=0.182x    frame=  401 fps=5.2 q=29.0 size=   14704kB time=00:00:14.08 bitrate=8552.4kbits/s speed=0.182x    frame=  408 fps=5.2 q=28.0 size=   14704kB time=00:00:14.37 bitrate=8378.7kbits/s speed=0.184x    frame=  415 fps=5.3 q=28.0 size=   14704kB time=00:00:14.66 bitrate=8211.9kbits/s speed=0.186x    frame=  420 fps=5.3 q=28.0 size=   14704kB time=00:00:14.87 bitrate=8097.1kbits/s speed=0.187x    frame=  424 fps=5.3 q=28.0 size=   18537kB time=00:00:15.04 bitrate=10094.6kbits/s speed=0.188x    frame=  428 fps=5.3 q=28.0 size=   18537kB time=00:00:15.20 bitrate=9984.5kbits/s speed=0.188x    frame=  432 fps=5.3 q=28.0 size=   18537kB time=00:00:15.37 bitrate=9876.0kbits/s speed=0.188x    frame=  436 fps=5.3 q=28.0 size=   18537kB time=00:00:15.54 bitrate=9769.9kbits/s speed=0.189x    frame=  440 fps=5.3 q=28.0 size=   18537kB time=00:00:15.70 bitrate=9666.7kbits/s speed=0.189x    frame=  447 fps=5.3 q=27.0 size=   18537kB time=00:00:16.00 bitrate=9490.3kbits/s speed=0.191x    frame=  448 fps=5.3 q=27.0 size=   18537kB time=00:00:16.04 bitrate=9465.4kbits/s speed=0.19x    frame=  455 fps=5.3 q=27.0 size=   18537kB time=00:00:16.33 bitrate=9296.8kbits/s speed=0.19x    frame=  461 fps=5.3 q=28.0 size=   18537kB time=00:00:16.58 bitrate=9156.6kbits/s speed=0.19x    frame=  467 fps=5.3 q=28.0 size=   18537kB time=00:00:16.83 bitrate=9020.6kbits/s speed=0.19x    frame=  473 fps=5.3 q=28.0 size=   18537kB time=00:00:17.08 bitrate=8888.6kbits/s speed=0.191x    frame=  476 fps=5.3 q=28.0 size=   18537kB time=00:00:17.20 bitrate=8824.1kbits/s speed=0.192x    frame=  481 fps=5.3 q=28.0 size=   21937kB time=00:00:17.41 bitrate=10317.2kbits/s speed=0.193x    frame=  484 fps=5.3 q=28.0 size=   21937kB time=00:00:17.54 bitrate=10243.7kbits/s speed=0.193x    frame=  488 fps=5.3 q=28.0 size=   21937kB time=00:00:17.70 bitrate=10147.7kbits/s speed=0.193x    frame=  492 fps=5.3 q=28.0 size=   21937kB time=00:00:17.87 bitrate=10052.9kbits/s speed=0.193x    frame=  496 fps=5.3 q=28.0 size=   21937kB time=00:00:18.04 bitrate=9959.8kbits/s speed=0.194x    frame=  500 fps=5.3 q=28.0 size=   21937kB time=00:00:18.20 bitrate=9869.0kbits/s speed=0.195x    frame=  500 fps=4.9 q=-1.0 Lsize=   27080kB time=00:00:20.70 bitrate=10712.2kbits/s speed=0.204x    
video:27075kB audio:0kB subtitle:0kB other streams:0kB global headers:0kB muxing overhead: 0.018074%
bench: utime=343.508s
bench: maxrss=1822444kB
[libx264 @ 0x40011c0] frame I:8     Avg QP:22.82  size:196908
[libx264 @ 0x40011c0] frame P:269   Avg QP:27.96  size: 67613
[libx264 @ 0x40011c0] frame B:223   Avg QP:26.44  size: 35700
[libx264 @ 0x40011c0] consecutive B-frames: 37.0%  8.4%  6.6% 48.0%
[libx264 @ 0x40011c0] mb I  I16..4: 27.1% 68.5%  4.4%
[libx264 @ 0x40011c0] mb P  I16..4: 22.6% 16.6%  0.4%  P16..4: 30.2%  4.0%  1.7%  0.0%  0.0%    skip:24.5%
[libx264 @ 0x40011c0] mb B  I16..4:  1.2%  2.4%  0.2%  B16..8: 33.9%  3.2%  0.5%  direct: 1.7%  skip:56.9%  L0:42.5% L1:53.3% BI: 4.2%
[libx264 @ 0x40011c0] final ratefactor: 24.92
[libx264 @ 0x40011c0] 8x8 transform intra:45.2% inter:88.4%
[libx264 @ 0x40011c0] direct mvs  spatial:98.7% temporal:1.3%
[libx264 @ 0x40011c0] coded y,uvDC,uvAC intra: 17.5% 29.5% 3.0% inter: 7.7% 9.6% 0.2%
[libx264 @ 0x40011c0] i16 v,h,dc,p: 25% 27%  9% 39%
[libx264 @ 0x40011c0] i8 v,h,dc,ddl,ddr,vr,hd,vl,hu: 14% 12% 24%  7%  9%  8% 10%  7%  9%
[libx264 @ 0x40011c0] i4 v,h,dc,ddl,ddr,vr,hd,vl,hu: 14% 15%  8%  7% 14% 12% 15%  6%  9%
[libx264 @ 0x40011c0] i8c dc,h,v,p: 66% 20% 10%  4%
[libx264 @ 0x40011c0] Weighted P-Frames: Y:1.1% UV:0.7%
[libx264 @ 0x40011c0] ref P L0: 66.4% 18.3%  8.9%  3.3%  2.4%  0.7%
[libx264 @ 0x40011c0] ref B L0: 90.1%  7.1%  2.3%  0.5%
[libx264 @ 0x40011c0] ref B L1: 97.7%  2.3%
[libx264 @ 0x40011c0] kb/s:10646.08
